<svg xmlns="http://www.w3.org/2000/svg" fill="none" viewBox="0 0 110 110" height="110" width="110">
<mask height="110" width="110" y="0" x="0" maskUnits="userSpaceOnUse" style="mask-type:alpha" id="mask0_1:145">
<rect fill="white" height="110" width="110"></rect>
</mask>
<g mask="url(#mask0_1:145)">
<ellipse fill="#FFB5A1" transform="rotate(-18 82.9511 51.6986)" ry="6.45815" rx="6.38716" cy="51.6986" cx="82.9511"></ellipse>
<path fill="#C26B6B" d="M85.9633 50.185C86.2899 50.1556 86.5308 49.867 86.5013 49.5404C86.4719 49.2139 86.1834 48.973 85.8568 49.0024C84.0742 49.163 82.6131 50.4385 81.6464 51.5524C81.1516 52.1226 80.7597 52.6815 80.4916 53.0971C80.3573 53.3054 80.2532 53.479 80.182 53.6018C80.1464 53.6633 80.119 53.7121 80.1001 53.7462L80.0782 53.7863L80.072 53.7976L80.0702 53.801L80.0692 53.8029C79.9157 54.0926 80.0261 54.452 80.3158 54.6055C80.6054 54.759 80.9646 54.6486 81.1182 54.3591L81.1188 54.3581L81.1224 54.3514L81.2093 54.1972C81.2722 54.0887 81.3664 53.9313 81.4894 53.7406C81.736 53.3583 82.0946 52.8475 82.5431 52.3306C82.6426 52.216 82.7454 52.1024 82.8512 51.9908C82.8607 51.994 82.8705 51.9973 82.8805 52.0008C83.0555 52.061 83.2959 52.1581 83.5533 52.3038C84.0725 52.5979 84.6191 53.0649 84.884 53.7892C84.9966 54.0971 85.3376 54.2554 85.6455 54.1428C85.9534 54.0302 86.1117 53.6893 85.9991 53.3814C85.604 52.3009 84.8023 51.6467 84.1384 51.2707C84.0311 51.2099 83.9263 51.1557 83.8259 51.1076C84.4797 50.6111 85.2035 50.2534 85.9633 50.185Z" clip-rule="evenodd" fill-rule="evenodd"></path>
<ellipse fill="#FFB5A1" transform="matrix(-0.951057 -0.309017 -0.309017 0.951057 24.9513 51.6986)" ry="6.45815" rx="6.38716"></ellipse>
<path fill="#C26B6B" d="M22.5406 50.185C22.214 50.1556 21.9732 49.867 22.0026 49.5404C22.032 49.2139 22.3205 48.973 22.6471 49.0024C24.4297 49.163 25.8908 50.4385 26.8575 51.5524C27.3523 52.1226 27.7442 52.6815 28.0123 53.0971C28.1466 53.3054 28.2507 53.479 28.3219 53.6018C28.3575 53.6633 28.3849 53.7121 28.4038 53.7462L28.4257 53.7863L28.4319 53.7976L28.4337 53.801L28.4347 53.8029C28.5882 54.0926 28.4778 54.452 28.1881 54.6055C27.8985 54.759 27.5393 54.6486 27.3857 54.3591L27.3851 54.3581L27.3815 54.3514L27.2946 54.1972C27.2317 54.0887 27.1375 53.9313 27.0145 53.7406C26.7679 53.3583 26.4093 52.8475 25.9608 52.3306C25.8613 52.216 25.7585 52.1024 25.6527 51.9908C25.6432 51.994 25.6334 51.9973 25.6234 52.0008C25.4484 52.061 25.208 52.1581 24.9506 52.3038C24.4314 52.5979 23.8848 53.0649 23.6199 53.7892C23.5073 54.0971 23.1663 54.2554 22.8584 54.1428C22.5505 54.0302 22.3922 53.6893 22.5048 53.3814C22.9 52.3009 23.7016 51.6467 24.3655 51.2707C24.4728 51.2099 24.5776 51.1557 24.678 51.1076C24.0242 50.6111 23.3004 50.2534 22.5406 50.185Z" clip-rule="evenodd" fill-rule="evenodd"></path>
<path fill="white" d="M69.1486 90.219C69.1486 90.219 91.5921 96.2244 96.0285 102.446C99.3231 106.522 99.2855 112.371 99.2855 112.371L10.6449 115.818C10.6449 115.818 10.5168 107.026 15.32 100.689C20.7731 93.7756 41.9582 90.219 41.9582 90.219H69.1486Z" clip-rule="evenodd" fill-rule="evenodd"></path>
<mask height="26" width="90" y="90" x="10" maskUnits="userSpaceOnUse" style="mask-type:alpha" id="mask1_1:145">
<path fill="white" d="M69.1486 90.219C69.1486 90.219 91.5921 96.2244 96.0285 102.446C99.3231 106.522 99.2855 112.371 99.2855 112.371L10.6449 115.818C10.6449 115.818 10.5168 107.026 15.32 100.689C20.7731 93.7756 41.9582 90.219 41.9582 90.219H69.1486Z" clip-rule="evenodd" fill-rule="evenodd"></path>
</mask>
<g mask="url(#mask1_1:145)">
<path fill="#395CB4" d="M51.0641 96.5965V119.984L58.5641 120.24V96.5965L51.0641 96.5965Z" clip-rule="evenodd" fill-rule="evenodd"></path>
<path fill="#395CB4" d="M68.612 94.5823C68.612 94.5823 96.4923 99.0713 95.7726 111.558C97.2797 111.529 97.525 111.023 97.525 111.023C97.525 111.023 96.391 97.8201 71.4118 93.3508C49.1696 88.3323 68.612 94.5823 68.612 94.5823Z" clip-rule="evenodd" fill-rule="evenodd"></path>
<path fill="#395CB4" d="M39.6246 93.9966C39.6246 93.9966 27.7775 96.1293 21.3371 100.904C14.8966 105.679 14.6259 115.343 14.6259 115.343L12.5641 113.504C12.5641 113.504 14.1508 103.156 20.5131 99.093C26.8754 95.03 37.9584 92.2405 37.9584 92.2405L39.6246 93.9966Z" clip-rule="evenodd" fill-rule="evenodd"></path>
</g>
<path fill="#272727" d="M81.4423 93.4253C81.4423 93.4253 79.5485 97.5386 78.5797 101.979C77.5866 106.53 77.8341 109.305 77.8341 111.75C77.8341 117.51 88.5897 112.484 88.5897 112.484C88.5897 112.484 88.2301 109.153 88.5897 106.187C88.9494 103.221 90.3503 97.9649 90.3503 97.9649C90.3503 97.9649 90.9439 98.2119 91.1889 98.3884C91.2841 98.0004 90.4577 97.1284 90.4577 97.1284C90.4577 97.1284 88.89 95.7942 86.3639 94.7952C83.8378 93.7961 81.4423 93.4253 81.4423 93.4253Z" clip-rule="evenodd" fill-rule="evenodd"></path>
<path fill="#272727" d="M27.3205 93.2405C27.3205 93.2405 29.2143 97.3538 30.1831 101.794C31.1762 106.345 30.9287 109.12 30.9287 111.565C30.9287 117.326 20.1731 112.3 20.1731 112.3C20.1731 112.3 20.5327 108.968 20.1731 106.002C19.8134 103.036 18.4125 97.7801 18.4125 97.7801C18.4125 97.7801 17.8189 98.027 17.5739 98.2036C17.4787 97.8156 18.3052 96.9436 18.3052 96.9436C18.3052 96.9436 19.8728 95.6094 22.3989 94.6104C24.925 93.6113 27.3205 93.2405 27.3205 93.2405Z" clip-rule="evenodd" fill-rule="evenodd"></path>
<path fill="#466DCE" d="M43.1958 85.9643C39.4238 87.95 33.9316 92.3467 33.9316 92.3467C33.9316 92.3467 37.3923 93.5349 44.356 97.0322C51.6504 101.203 53.5645 106.739 54.814 106.739C56.0634 106.739 58.5667 101.839 63.7859 97.9304C73.1562 92.3086 75.5269 91.9684 75.5269 91.9684C75.5269 91.9684 68.6543 86.3008 64.5713 85.4736C62.5955 84.6929 48.7097 83.3848 43.1958 85.9643Z" clip-rule="evenodd" fill-rule="evenodd"></path>
<path fill="#466DCE" d="M43.1958 85.9632C39.4238 87.9489 33.9316 92.3456 33.9316 92.3456C33.9316 92.3456 37.3923 93.5338 44.356 97.0311C51.6504 101.202 53.5645 106.738 54.814 106.738C56.0634 106.738 58.5667 101.838 63.7859 97.9293C73.1562 92.3075 75.5269 91.9673 75.5269 91.9673C75.5269 91.9673 68.6543 86.2997 64.5713 85.4725C62.5955 84.6918 48.7097 83.3837 43.1958 85.9632Z" clip-rule="evenodd" fill-rule="evenodd"></path>
<path fill="#3359B6" d="M49.0004 86C44.5556 86.4939 41.5 88.5 41.5001 91C41.5002 93.5 52.0001 101 54.5 102C58.0001 100.5 67.5003 92 65.5001 88.5C63.9116 85.7203 53.4999 85.5 49.0004 86Z"></path>
<path fill="#FFB5A1" d="M45.5645 79.2405C45.5645 79.2405 47.4492 86.3704 45.5645 91.22C46.6401 93.4392 48.3286 96.4558 53.8611 96.5955C60.2153 96.6711 62.7295 91.22 62.7295 91.22C62.7295 91.22 61.1416 86.9172 61.4629 79.2405C53.955 80.1799 45.5645 79.2405 45.5645 79.2405Z" clip-rule="evenodd" fill-rule="evenodd"></path>
<mask height="18" width="18" y="79" x="45" maskUnits="userSpaceOnUse" style="mask-type:alpha" id="mask2_1:145">
<path fill="#FFB5A1" d="M45.5596 79.24C45.5596 79.24 47.4443 86.3699 45.5596 91.2195C46.6353 93.4387 48.3237 96.4553 53.8562 96.595C60.2104 96.6707 62.7246 91.2195 62.7246 91.2195C62.7246 91.2195 61.1367 86.9167 61.458 79.24C53.9501 80.1794 45.5596 79.24 45.5596 79.24Z" clip-rule="evenodd" fill-rule="evenodd"></path>
</mask>
<g mask="url(#mask2_1:145)">
<path fill="#FC9D84" d="M62.5002 88.5C53.0002 89.5 48.0001 85 45.5 82.5C42.9999 80 45.5 79.5 45.5 79.5C51 78.8333 62.2 77.5 63 77.5C64 77.5 72.0002 87.5 62.5002 88.5Z"></path>
</g>
<path fill="#FFCDBC" d="M26.2814 44.8137C25.5831 29.1117 38.187 16 53.9045 16C69.3143 16 81.7971 28.6235 81.5495 44.0313L81.3607 55.7768C81.1304 70.1062 69.9668 81.8731 55.6693 82.8564L53.5822 83L52.3507 82.9097C38.4038 81.8875 27.4278 70.5917 26.8065 56.6212L26.2814 44.8137Z" clip-rule="evenodd" fill-rule="evenodd"></path>
<mask height="67" width="56" y="16" x="26" maskUnits="userSpaceOnUse" style="mask-type:alpha" id="mask3_1:145">
<path fill="white" d="M26.2814 44.8137C25.5831 29.1117 38.187 16 53.9045 16C69.3143 16 81.7971 28.6235 81.5495 44.0313L81.3607 55.7768C81.1304 70.1062 69.9668 81.8731 55.6693 82.8564L53.5822 83L52.3507 82.9097C38.4038 81.8875 27.4278 70.5917 26.8065 56.6212L26.2814 44.8137Z" clip-rule="evenodd" fill-rule="evenodd"></path>
</mask>
<g mask="url(#mask3_1:145)">
<circle fill="#FFA2A2" r="6.53502" cy="67.535" cx="74.535" opacity="0.624907"></circle>
<circle fill="#FFA2A2" r="6.53502" cy="67.535" cx="33.535" opacity="0.624907"></circle>
<ellipse fill="#623D3D" ry="3.39699" rx="2.77936" cy="55.397" cx="67.7794"></ellipse>
<ellipse fill="#623D3D" ry="3.39699" rx="2.77936" cy="55.397" cx="40.7794"></ellipse>
<path fill="url(#paint0_linear_1:145)" d="M45.9996 64C45.9996 64 55.5 64 61.5 64C60.9972 69.2014 57.4995 71 53.5 71C46.9995 71 45.9996 64 45.9996 64Z" clip-rule="evenodd" fill-rule="evenodd"></path>
<path stroke-linejoin="round" stroke-linecap="round" stroke="#F28080" d="M53.8771 48C52.6874 51.8299 50.8433 59.5747 52.9848 59.9152C55.1263 60.2556 56.5539 59.4896 57 59.0641"></path>
<path fill="#623D3D" d="M62 46.0181C62 46.0181 68.5 47 72.5 48C69.5 41 62 46.0181 62 46.0181Z" clip-rule="evenodd" fill-rule="evenodd"></path>
<path fill="#623D3D" d="M46.5 45.7415C46.5 45.7415 40 46.7234 36 47.7234C39 40.7234 46.5 45.7415 46.5 45.7415Z" clip-rule="evenodd" fill-rule="evenodd"></path>
<path fill="#FFB5A1" d="M42 35.5C41.2 38.7 31.5 45 28 45L27 37.5L33.5 24L77 30.5L80.5 42.5C79.1667 44.3333 75.5 45 70 42C63 44 54.5 40 51 36.5C49.3333 38 45.6 39.1 42 35.5Z"></path>
</g>
<path fill="#1E0E0E" d="M83.0166 32.5794L81.8677 55.7532C81.8677 55.7532 80.2035 55.4846 78.741 51.3464C77.2303 42.5281 77.0071 32.5794 77.0071 32.5794H83.0166Z" clip-rule="evenodd" fill-rule="evenodd"></path>
<path fill="#1E0E0E" d="M25.5645 32.2405L26.7133 55.4142C26.7133 55.4142 28.3776 55.1456 29.84 51.0075C31.3508 42.1891 31.574 32.2405 31.574 32.2405H25.5645Z" clip-rule="evenodd" fill-rule="evenodd"></path>
<path fill="#382222" d="M43.5949 10.5403C43.5949 10.5403 35.64 12.2613 30.5302 16.8674C29.8316 17.5779 30.121 18.3955 31.996 17.9736C30.101 19.1919 26.6503 23.2859 25.3348 26.0916C20.6498 35.9238 24.5644 37.3728 24.5644 37.3728C24.5644 37.3728 24.0597 42.5325 28.0312 42.1839C32.2802 42.531 37.8119 39.0013 41.8671 31.8899C48.7714 39.1546 51.2875 33.1839 51.2875 33.1839C51.2875 33.1839 61.2651 41.9666 71.5502 39.9647C74.5855 41.659 82.83 43.7918 83.257 38.1839C86.4283 39.0138 86.6287 34.9703 83.6566 28.1674C83.5314 27.8809 85.1596 28.2405 84.2383 25.6C78.9145 14.3801 61.9565 9.12109 49.6905 10.1058C52.0888 6.57745 50.3838 6.65942 48.9987 7.43969C47.6136 8.21996 46.6298 10.1058 46.6298 10.1058C46.6298 10.1058 45.2592 8.08153 43.5949 8.08153C41.9307 8.08153 43.5949 10.5403 43.5949 10.5403Z" clip-rule="evenodd" fill-rule="evenodd"></path>
<mask height="36" width="63" y="7" x="23" maskUnits="userSpaceOnUse" style="mask-type:alpha" id="mask4_1:145">
<path fill="#382222" d="M43.593 10.5403C43.593 10.5403 35.638 12.2613 30.5283 16.8674C29.8297 17.5779 30.1191 18.3955 31.9941 17.9736C30.0991 19.1919 26.6484 23.2859 25.3329 26.0916C20.6479 35.9238 24.5624 37.3728 24.5624 37.3728C24.5624 37.3728 24.0578 42.5325 28.0292 42.1839C32.2782 42.531 37.81 39.0013 41.8651 31.8899C48.7694 39.1546 51.2856 33.1839 51.2856 33.1839C51.2856 33.1839 61.2632 41.9666 71.5482 39.9647C74.5836 41.659 82.828 43.7918 83.255 38.1839C86.4264 39.0138 86.6268 34.9703 83.6546 28.1674C83.5294 27.8809 85.1577 28.2405 84.2363 25.6C78.9125 14.3801 61.9545 9.12109 49.6886 10.1058C52.0868 6.57745 50.3819 6.65942 48.9968 7.43969C47.6117 8.21996 46.6278 10.1058 46.6278 10.1058C46.6278 10.1058 45.2572 8.08153 43.593 8.08153C41.9288 8.08153 43.593 10.5403 43.593 10.5403Z" clip-rule="evenodd" fill-rule="evenodd"></path>
</mask>
<g mask="url(#mask4_1:145)">
<path fill="#271515" d="M28 30C30.1667 29.1667 35.8 25.8 41 19C38 26 32.3333 29.1667 28 30Z"></path>
<path fill="#271515" d="M74 28.8421C71.536 29.6842 66.9996 26 65.4995 24C66.152 26 68.12 29.1053 67 32C67.84 32 68.96 30.2456 68.96 29.1053C69.7067 29.7193 71.76 30.5263 74 28.8421Z"></path>
<path fill="#271515" d="M47.5 11L50.5 7.5C53.1636 8.38785 56.859 9.61186 59.4625 10.4565C60.1785 10.5904 60.864 10.7687 61.5 11C63.7692 11.8251 62.235 11.3559 59.4625 10.4565C55.2259 9.66426 49.9238 10.4297 47.5 11Z"></path>
<path fill="#271515" d="M41 29C34.5 38.5 28 41 24.5 37.5V44H89.5L85.5 32.5C85.5 33.8333 84.7 36.5 81.5 36.5C82 40.5 74 39.5 69.5 38C58.3 38.4 53.1667 32.5 52 29.5C47.5 35 43.5 31.5 41 29Z"></path>
<path fill="#271515" d="M38 15C38 15 33.1667 16.6667 30 17L28 21C30.3333 19.6667 38 15 38 15Z"></path>
</g>
<path fill="white" d="M46.2042 89.1677C46.2042 89.1677 41.1866 91.8064 54.5007 102C66 93 62.2803 89.1677 62.2803 89.1677C62.2803 89.1677 59.8598 94.4524 54.121 94.4524C48.3823 94.4524 46.2042 89.1677 46.2042 89.1677Z" clip-rule="evenodd" fill-rule="evenodd"></path>
</g>
<defs>
<linearGradient gradientUnits="userSpaceOnUse" y2="71.081" x2="42.6858" y1="59.1564" x1="41.6248" id="paint0_linear_1:145">
<stop stop-color="#D08787"></stop>
<stop stop-color="#A34F4F" offset="1"></stop>
</linearGradient>
</defs>
</svg>
